<?xml version="1.0" encoding="utf-8" ?><svg xmlns="http://www.w3.org/2000/svg" xmlns:xlink="http://www.w3.org/1999/xlink" width="50" height="50" viewBox="0 0 50 50"><path fill="white" transform="scale(0.0976562 0.0976562)" d="M90.8622 0.852046C99.3189 0.514588 108.677 0.730341 117.192 0.716614L167.631 0.709983L313.64 0.757828L389.9 0.732366C401.619 0.772145 418.789 0.0101357 429.945 1.93873C447.999 5.11001 464.82 13.2245 478.54 25.3807C494.335 39.5865 504.994 58.6121 508.862 79.5003C511.084 91.4437 510.531 104.724 510.54 116.878L510.552 159.396L510.538 289.344L510.553 376.279L510.557 401.429C510.555 411.796 510.736 420.243 508.966 430.606C506.297 446.234 497.666 465.27 487.02 477.102C472.242 493.845 452.214 505.068 430.219 508.931C426.585 509.565 423.94 510.09 420.221 510.276C410.561 510.465 400.587 510.334 390.907 510.331L340.307 510.34L188.127 510.363L119.955 510.386L102.762 510.424C96.6213 510.462 90.9946 510.523 84.8942 509.695C40.308 503.644 4.072 466.853 1.16403 421.556C0.664475 413.774 0.82935 405.877 0.836077 398.003L0.845928 361.216L0.817921 236.814L0.82284 138.502L0.810799 109.418C0.817569 98.606 0.620624 90.1937 2.38836 79.5281C5.17228 63.2095 12.3782 47.967 23.2222 35.4588C40.9992 14.797 63.589 2.89635 90.8622 0.852046Z"/><path fill="white" transform="scale(0.0976562 0.0976562)" d="M161.185 186.432C158.138 186.846 155.051 186.877 151.996 186.525C142.442 185.529 133.691 180.728 127.716 173.205C114.973 157.175 117.384 133.507 133.657 120.899C141.504 114.884 151.417 112.229 161.22 113.515C171.179 114.81 179.675 119.981 185.717 127.94C191.467 135.533 193.988 145.088 192.731 154.529C195.21 155.077 198.868 156.277 201.486 156.995C209.159 159.075 216.809 161.24 224.434 163.49C234.204 166.339 245.713 169.274 255.196 172.303C268.483 176.475 282.163 180.012 295.501 183.991C300.981 185.626 310.599 188.047 315.695 190.1C320.106 180.63 327.096 173.475 336.998 169.82C346.326 166.352 356.656 166.776 365.67 170.995C374.536 175.267 381.32 182.915 384.503 192.229C387.639 201.538 386.943 211.712 382.567 220.506C378.243 229.316 370.595 236.045 361.307 239.213C352.157 242.258 342.171 241.534 333.555 237.201C331.444 236.141 328.739 234.491 327.015 232.848C324.318 234.986 320.78 238.713 318.348 241.21C316.815 242.751 314.881 244.806 313.281 246.205C307.177 252.437 300.669 259.071 294.31 265.015C291.403 268.531 285.352 273.954 281.902 277.503C279.344 280.358 276.477 282.934 273.74 285.627L261.395 297.896C252.897 306.3 243.964 315.682 235.281 323.744C237.32 326.728 238.995 329.271 240.288 332.677C243.699 341.668 243.716 352.144 239.782 360.949C235.788 370.097 228.214 377.204 218.831 380.609C209.62 383.958 199.463 383.569 190.534 379.527C181.687 375.427 174.806 368.013 171.378 358.884C164.47 340.154 174.109 318.741 192.892 311.764L183.258 274.356C181.302 266.487 179.16 256.432 176.917 248.814C176.063 246.184 175.129 242.056 174.407 239.267C172.494 231.995 170.672 224.7 168.941 217.382C166.552 207.655 163.193 195.975 161.185 186.432Z"/><path fill="#A6BDA3" transform="scale(0.0976562 0.0976562)" d="M185.624 246.465C189.38 260.043 192.575 274.485 196.141 288.209C197.623 293.908 200.49 303.943 201.5 309.276C209.753 309.004 216.703 309.502 224.018 313.854C225.826 314.929 227.688 316.05 229.192 317.534C244.184 301.997 260.043 287.031 275.079 271.572L275.3 271.772C277.921 274.173 278.66 275.845 281.902 277.503C279.344 280.358 276.477 282.934 273.74 285.627L261.395 297.896C252.897 306.3 243.964 315.682 235.281 323.744C237.32 326.728 238.995 329.271 240.288 332.677C243.699 341.668 243.716 352.144 239.782 360.949C235.788 370.097 228.214 377.204 218.831 380.609C209.62 383.958 199.463 383.569 190.534 379.527C181.687 375.427 174.806 368.013 171.378 358.884C164.47 340.154 174.109 318.741 192.892 311.764L183.258 274.356C181.302 266.487 179.16 256.432 176.917 248.814C179.857 248.176 182.762 247.392 185.624 246.465Z"/><path fill="#F5DF9B" transform="scale(0.0976562 0.0976562)" d="M161.185 186.432C158.138 186.846 155.051 186.877 151.996 186.525C142.442 185.529 133.691 180.728 127.716 173.205C114.973 157.175 117.384 133.507 133.657 120.899C141.504 114.884 151.417 112.229 161.22 113.515C171.179 114.81 179.675 119.981 185.717 127.94C191.467 135.533 193.988 145.088 192.731 154.529C195.21 155.077 198.868 156.277 201.486 156.995C209.159 159.075 216.809 161.24 224.434 163.49C234.204 166.339 245.713 169.274 255.196 172.303C254.039 174.832 253.799 178.813 252.506 181.11C233.967 176.084 215.466 170.329 196.949 165.175C194.82 164.583 192.61 163.965 190.505 163.307C186.872 172.207 179.054 181.397 169.47 184.03C170.384 186.466 171.229 189.399 171.831 191.937C176.134 210.088 181.651 228.269 185.624 246.465C182.762 247.392 179.857 248.176 176.917 248.814C176.063 246.184 175.129 242.056 174.407 239.267C172.494 231.995 170.672 224.7 168.941 217.382C166.552 207.655 163.193 195.975 161.185 186.432Z"/><path fill="#E6937F" transform="scale(0.0976562 0.0976562)" d="M315.695 190.1C320.106 180.63 327.096 173.475 336.998 169.82C346.326 166.352 356.656 166.776 365.67 170.995C374.536 175.267 381.32 182.915 384.503 192.229C387.639 201.538 386.943 211.712 382.567 220.506C378.243 229.316 370.595 236.045 361.307 239.213C352.157 242.258 342.171 241.534 333.555 237.201C331.444 236.141 328.739 234.491 327.015 232.848C324.318 234.986 320.78 238.713 318.348 241.21C316.815 242.751 314.881 244.806 313.281 246.205C307.177 252.437 300.669 259.071 294.31 265.015C291.403 268.531 285.352 273.954 281.902 277.503C278.66 275.845 277.921 274.173 275.3 271.772L275.079 271.572L297.301 249.492C304.623 242.277 313.373 233.874 320.389 226.477C314.198 217.299 312.048 209.61 313.27 198.46C311.456 198.083 309.492 197.6 307.714 197.062C289.428 191.528 270.755 186.715 252.506 181.11C253.799 178.813 254.039 174.832 255.196 172.303C268.483 176.475 282.163 180.012 295.501 183.991C300.981 185.626 310.599 188.047 315.695 190.1Z"/><path fill="#E6937F" transform="scale(0.0976562 0.0976562)" d="M347.345 270.209C355.931 269.442 363.529 275.745 364.36 284.325C365.19 292.905 358.944 300.549 350.37 301.443C341.706 302.347 333.964 296.02 333.125 287.35C332.285 278.679 338.669 270.985 347.345 270.209Z"/><path fill="#F5DF9B" transform="scale(0.0976562 0.0976562)" d="M114.215 205.817C122.812 205.469 130.075 212.135 130.464 220.731C130.853 229.327 124.222 236.621 115.627 237.051C106.975 237.484 99.6207 230.798 99.2292 222.144C98.8377 213.489 105.559 206.167 114.215 205.817Z"/><path fill="#A6BDA3" transform="scale(0.0976562 0.0976562)" d="M124.441 317.135C132.981 315.647 141.1 321.393 142.536 329.942C143.972 338.49 138.176 346.574 129.619 347.958C121.136 349.33 113.136 343.595 111.712 335.12C110.288 326.645 115.975 318.61 124.441 317.135Z"/><path fill="#A6BDA3" transform="scale(0.0976562 0.0976562)" d="M143.346 383.698C151.893 382.343 159.914 388.192 161.236 396.744C162.559 405.296 156.679 413.294 148.122 414.584C139.611 415.867 131.665 410.026 130.35 401.52C129.034 393.014 134.845 385.046 143.346 383.698Z"/><path fill="#E6937F" transform="scale(0.0976562 0.0976562)" d="M407.868 243.106C416.387 241.793 424.357 247.636 425.668 256.156C426.979 264.675 421.135 272.644 412.616 273.954C404.098 275.263 396.131 269.421 394.821 260.903C393.51 252.386 399.351 244.418 407.868 243.106Z"/><path fill="#A6BDA3" transform="scale(0.0976562 0.0976562)" d="M286.604 331.166C295.198 330.38 302.797 336.722 303.561 345.318C304.325 353.913 297.964 361.496 289.366 362.238C280.799 362.978 273.25 356.644 272.488 348.079C271.727 339.514 278.041 331.949 286.604 331.166Z"/><path fill="#A6BDA3" transform="scale(0.0976562 0.0976562)" d="M234.582 404.155C243.049 402.64 251.143 408.269 252.669 416.734C254.196 425.199 248.578 433.3 240.115 434.838C231.636 436.379 223.515 430.748 221.986 422.267C220.457 413.786 226.099 405.673 234.582 404.155Z"/><path fill="#F5DF9B" transform="scale(0.0976562 0.0976562)" d="M227.875 92.0352C236.406 91.1019 244.085 97.2418 245.052 105.768C246.018 114.295 239.908 121.998 231.386 122.998C222.816 124.003 215.061 117.852 214.089 109.279C213.117 100.705 219.298 92.9737 227.875 92.0352Z"/><path fill="#E6937F" transform="scale(0.0976562 0.0976562)" d="M408.634 127.056C417.181 126.443 424.609 132.871 425.229 141.418C425.85 149.965 419.428 157.398 410.882 158.026C402.325 158.655 394.881 152.224 394.259 143.666C393.638 135.109 400.076 127.67 408.634 127.056Z"/></svg>